<?xml version="1.0" encoding="UTF-8"?>
<svg width="224px" height="44px" viewBox="0 0 224 44" version="1.1" xmlns="http://www.w3.org/2000/svg" xmlns:xlink="http://www.w3.org/1999/xlink">
    <!-- Generator: sketchtool 61.2 (101010) - https://sketch.com -->
    <title>72497239-CEDA-4B26-82AB-B8DDAC29819C</title>
    <desc>Created with sketchtool.</desc>
    <g id="Asset-Artboard-Page" stroke="none" stroke-width="1" fill="none" fill-rule="evenodd">
        <g id="loggo">
            <rect fill="transparent" x="0" y="0" width="224" height="44"></rect>
            <path d="M69.6074766,27.3880413 L74.8622156,27.3880413 L74.8622156,16.1381319 C75.7956232,15.4243914 77.0747372,14.7446386 78.4229926,14.7446386 C79.1489763,14.7446386 79.771248,14.9485644 80.2206665,15.458379 C80.6355143,15.934206 80.8083676,16.5459836 80.8083676,17.8035263 L80.8083676,27.3880413 L86.0631065,27.3880413 L86.0631065,16.9538353 C86.0631065,14.5407127 85.613688,13.0792441 84.5765685,11.9916396 C83.5048783,10.904035 81.9146284,10.2922575 80.1169545,10.2922575 C77.9735742,10.2922575 76.1759003,11.1759362 74.8622156,12.2295531 L74.7930743,12.1955654 L74.7930743,10.6661215 L69.6074766,10.6661215 L69.6074766,27.3880413 Z M94.5329159,19.0270811 C94.5329159,16.6479463 96.3651603,14.7446384 98.7505351,14.7446384 C101.13591,14.7446384 102.968154,16.6479463 102.968154,19.0270811 C102.968154,21.406216 101.13591,23.3095238 98.7505351,23.3095238 C96.3651603,23.3095238 94.5329159,21.406216 94.5329159,19.0270811 L94.5329159,19.0270811 Z M89.2781763,19.0270816 C89.2781763,23.9552898 93.3229424,27.7619058 98.7505346,27.7619058 C104.178127,27.7619058 108.222893,23.9552898 108.222893,19.0270816 C108.222893,14.0988735 104.178127,10.2922575 98.7505346,10.2922575 C93.3229424,10.2922575 89.2781763,14.0988735 89.2781763,19.0270816 L89.2781763,19.0270816 Z M114.272755,26.0965108 C115.344445,27.218103 116.969265,27.7619053 118.697798,27.7619053 C120.184336,27.7619053 121.740015,27.3540536 122.53514,26.8442389 L122.53514,22.7317343 C121.843727,23.0716107 120.875749,23.4114871 120.011483,23.4114871 C118.421233,23.4114871 118.040956,22.187932 118.040956,20.5565252 L118.040956,14.9485643 L122.53514,14.9485643 L122.53514,10.6661214 L118.040956,10.6661214 L118.040956,5.43202459 L112.786217,6.31570328 L112.786217,10.6661214 L110.020565,10.6661214 L110.020565,14.9485643 L112.786217,14.9485643 L112.786217,21.1003275 C112.786217,23.7513635 113.373918,25.1448568 114.272755,26.0965108 L114.272755,26.0965108 Z M125.266223,5.36404943 C125.266223,6.99545618 126.649049,8.32097417 128.30844,8.32097417 C129.967831,8.32097417 131.350657,6.99545618 131.350657,5.36404943 C131.350657,3.73264269 129.967831,2.4071247 128.30844,2.4071247 C126.649049,2.4071247 125.266223,3.73264269 125.266223,5.36404943 L125.266223,5.36404943 Z M125.681071,27.3880403 L130.935809,27.3880403 L130.935809,10.666121 L125.681071,10.666121 L125.681071,27.3880403 Z M136.225121,27.3880403 L141.479859,27.3880403 L141.479859,14.9485639 L145.420914,14.9485639 L145.420914,10.6661212 L141.479859,10.6661212 L141.479859,7.84514711 C141.479859,6.41766621 141.825566,5.398037 143.450387,5.398037 C144.038088,5.398037 145.075207,5.53398757 145.732049,5.70392577 L145.732049,1.52344601 C144.798642,1.18356961 143.796093,1.04761905 142.828115,1.04761905 C141.134153,1.04761905 139.232767,1.45547073 138.022794,2.6110505 C136.70911,3.83460555 136.225121,5.83987633 136.225121,8.18502351 L136.225121,10.6661212 L133.805175,10.6661212 L133.805175,14.9485639 L136.225121,14.9485639 L136.225121,27.3880403 Z M147.875431,5.36404943 C147.875431,6.99545618 149.258257,8.32097417 150.917649,8.32097417 C152.57704,8.32097417 153.959866,6.99545618 153.959866,5.36404943 C153.959866,3.73264269 152.57704,2.4071247 150.917649,2.4071247 C149.258257,2.4071247 147.875431,3.73264269 147.875431,5.36404943 L147.875431,5.36404943 Z M148.290275,27.3880403 L153.545014,27.3880403 L153.545014,10.666121 L148.290275,10.666121 L148.290275,27.3880403 Z M156.863795,19.0610693 C156.863795,24.0912404 160.87399,27.7619058 166.336153,27.7619058 C168.272109,27.7619058 170.277207,27.3540541 171.902028,26.4703753 L171.902028,21.7121054 C170.484631,22.7657223 168.583245,23.3774999 166.923854,23.3774999 C164.089061,23.3774999 162.118534,21.5761548 162.118534,19.0270816 C162.118534,16.5119961 164.05449,14.6426757 166.854713,14.6426757 C168.479533,14.6426757 170.138924,15.2544533 171.660033,16.2061073 L171.660033,11.4138497 C170.277207,10.7340968 168.514104,10.2922575 166.612718,10.2922575 C161.288838,10.2922575 156.863795,13.7929847 156.863795,19.0610693 L156.863795,19.0610693 Z M180.440979,27.7619058 C182.376936,27.7619058 184.070898,27.1501282 185.177158,26.3684124 L185.2463,26.3684124 C186.179707,27.3200664 187.527963,27.6939305 188.910789,27.6939305 C189.913338,27.6939305 190.846745,27.4900046 191.434446,27.1841158 L191.434446,23.3095246 C191.157881,23.4454752 190.846745,23.5134504 190.57018,23.5134504 C189.844196,23.5134504 189.53306,22.9696482 189.53306,22.1879324 L189.53306,16.5119961 C189.53306,14.4047622 188.910789,12.909306 187.631675,11.8896767 C186.283419,10.8020721 184.243751,10.2922575 181.962088,10.2922575 C179.473001,10.2922575 177.398762,10.9040351 176.015936,11.5837879 L176.015936,16.0361691 C177.364191,15.3224286 179.092724,14.710651 180.99411,14.710651 C182.238653,14.710651 183.13749,14.9825522 183.621479,15.4243915 C184.001756,15.7642679 184.278322,16.3760455 184.278322,17.1917489 L184.278322,17.8375141 C183.344914,17.6335883 182.342365,17.5316254 181.339816,17.5316254 C179.576713,17.5316254 177.882751,17.8375141 176.569066,18.7211928 C175.359094,19.5368963 174.494827,20.9303896 174.494827,22.7657223 C174.494827,24.4990921 175.255382,25.8246101 176.499925,26.6743012 C177.606186,27.4220293 178.989012,27.7619058 180.440979,27.7619058 L180.440979,27.7619058 Z M181.892951,23.9552899 C180.682978,23.9552899 179.715,23.3775 179.715,22.2898955 C179.715,20.9983652 181.063255,20.5905135 182.411511,20.5905135 C182.964641,20.5905135 183.725195,20.6584888 184.278326,20.828427 L184.278326,23.2755371 C183.656054,23.6494012 182.791788,23.9552899 181.892951,23.9552899 L181.892951,23.9552899 Z M194.165525,27.3880403 L199.420264,27.3880403 L199.420264,17.2597234 C200.664807,15.8322425 202.185916,15.2884402 204.018161,15.2884402 C204.50215,15.2884402 205.020709,15.3564155 205.435557,15.4583784 L205.435557,10.5981458 C205.05528,10.4961829 204.675003,10.4621953 204.329296,10.4621953 C202.220487,10.4621953 200.561095,11.3118863 199.385693,12.943293 L199.316552,12.9093054 L199.316552,10.6661211 L194.165525,10.6661211 L194.165525,27.3880403 Z M223.896284,20.3865873 C223.965425,19.944748 223.999996,19.1970198 223.999996,18.6192299 C223.999996,13.0112689 220.058942,10.2922575 215.875894,10.2922575 C211.174285,10.2922575 206.956666,13.758997 206.956666,19.0950569 C206.956666,24.3291539 211.001432,27.7619058 216.601877,27.7619058 C218.848969,27.7619058 221.407197,27.2520911 223.066588,26.2324618 L223.066588,21.9160312 C221.268915,23.1055987 219.194676,23.7513639 217.29329,23.7513639 C214.873345,23.7513639 212.937388,22.697747 212.349687,20.3865873 L223.896284,20.3865873 Z M215.80675,14.2348241 C217.500712,14.2348241 218.848968,15.3224287 219.160103,17.1237737 L212.315115,17.1237737 C212.764533,15.2204658 214.18193,14.2348241 215.80675,14.2348241 L215.80675,14.2348241 Z" id="notificare" fill="#FFFFFF"></path>
            <g id="logo-notificare-beeldmerk-white" transform="translate(2.093458, 1.047619)" fill="#FFFFFF" fill-rule="nonzero">
                <path d="M40.1208779,35.2420208 C41.7540999,36.8859239 41.7540999,39.5527935 40.1208779,41.1956441 C38.4887013,42.8395472 35.8410525,42.8395472 34.2088758,41.1956441 L18.6872572,25.5680408 L26.588757,33.5228571 L33.4953271,33.5238095 C35.0005167,33.5238095 36.4593762,33.325006 37.8471167,32.9522053 L37.8471167,32.9522053 L40.1208779,35.2420208 Z" id="Combined-Shape"></path>
                <path d="M30.091066,25.1428571 L37.8471167,32.9522053 C36.4593762,33.325006 35.0005167,33.5238095 33.4953271,33.5238095 L26.588757,33.5228571 L18.6872572,25.5680408 C18.552941,25.4328029 18.4301227,25.2907242 18.317757,25.1428571 L30.091066,25.1428571 Z" id="Combined-Shape" opacity="0.6"></path>
                <path d="M33.4953271,25.1425954 C38.1192523,25.1425954 41.8691589,21.3899067 41.8691589,16.7619049 C41.8691589,12.1333793 38.1192523,8.38069062 33.4953271,8.38069062 L16.7476636,8.38069062 C12.123215,8.38069062 8.37383178,12.1333793 8.37383178,16.7619049 C8.37383178,21.3057612 11.9881132,25.0058446 16.496306,25.138891 L16.7476636,25.1425954 L18.317757,25.1428571 C18.4301227,25.2907242 18.552941,25.4328029 18.6872572,25.5680408 L18.6872572,25.5680408 L26.588757,33.5228571 L33.4953271,33.5238095 L33.4953271,33.5238095 L16.7476636,33.5238095 C7.49876636,33.5238095 0,26.0184321 0,16.7619048 C0,7.50485356 7.49876636,0 16.7476636,0 L33.4953271,0 C42.7437009,0 50.2429907,7.50485356 50.2429907,16.7619048 C50.2429907,24.5122755 44.9856162,31.0350032 37.8461219,32.9524725 L37.8471167,32.9522053 L37.7724386,32.9720805 C37.3625128,33.08016 36.9464427,33.173074 36.5248638,33.2501867 C36.4730265,33.2596688 36.4210046,33.2689295 36.3689003,33.2779492 C36.2336413,33.3013636 36.0978382,33.3231521 35.9615005,33.3432959 C35.9558598,33.3441295 35.94987,33.3450112 35.9438793,33.3458898 C35.809504,33.3655947 35.6749323,33.3836628 35.5398646,33.4001212 C35.5081964,33.4039801 35.4764627,33.407755 35.444702,33.411441 C35.3118146,33.4268627 35.1784828,33.4407245 35.0446961,33.4530109 C34.996852,33.457404 34.9492125,33.4615737 34.9015162,33.4655433 C34.7812466,33.4755561 34.6601914,33.4843228 34.5387866,33.4917946 C34.5180905,33.4930683 34.4973983,33.4943035 34.4766959,33.4955012 C34.3374231,33.5035574 34.1977725,33.5099072 34.0576869,33.5145346 C34.0132542,33.516002 33.9689118,33.5172927 33.9245266,33.5184106 C33.8887933,33.5193105 33.8530235,33.5200986 33.8172263,33.5207742 L33.4953271,33.5238095 C33.6388218,33.5238095 33.7818955,33.5220027 33.9245266,33.5184106 C33.9689623,33.5172914 34.0133464,33.5159993 34.0576869,33.5145346 L33.9245266,33.5184106 C34.1093417,33.513756 34.2934137,33.506104 34.4766959,33.4955012 L34.0576869,33.5145346 C34.2186381,33.509218 34.379015,33.5016276 34.5387866,33.4917946 L34.4766959,33.4955012 C34.6187846,33.4872814 34.7603986,33.4772882 34.9015162,33.4655433 L34.5387866,33.4917946 C34.7081154,33.4813733 34.8767642,33.4684331 35.0446961,33.4530109 L34.9015162,33.4655433 C35.0834185,33.4504041 35.264496,33.4323544 35.444702,33.411441 L35.0446961,33.4530109 C35.2104626,33.4377876 35.3755306,33.4201458 35.5398646,33.4001212 L35.444702,33.411441 C35.6118566,33.3920422 35.7782614,33.3701794 35.9438793,33.3458898 L35.5398646,33.4001212 C35.6809585,33.3829285 35.8215113,33.3639792 35.9615005,33.3432959 L35.9438793,33.3458898 C36.0861415,33.3250257 36.227823,33.3023709 36.3689003,33.2779492 L35.9615005,33.3432959 C36.1503322,33.3153962 36.3381383,33.2843414 36.5248638,33.2501867 L36.3689003,33.2779492 C36.8696022,33.1912733 37.3626925,33.0823403 37.8471167,32.9522053 L37.7724386,32.9720805 C37.7970218,32.965599 37.821583,32.9590629 37.8461219,32.9524725 L30.091066,25.1428571 L33.4953271,25.1425954 Z" id="Combined-Shape"></path>
            </g>
        </g>
    </g>
</svg>
